#N canvas 250 281 136 168 10;
#X obj 64 123 *~;
#X obj -4 123 *~;
#X obj 80 77 cos~;
#X obj 80 40 -~ 0.25;
#X obj 80 18 *~ 0.25;
#X obj 12 101 cos~;
#X obj 12 77 -~ 0.25;
#X obj 80 -4 sig~ \$1;
#X obj -4 146 outlet~ l;
#X obj 64 146 outlet~ r;
#X obj -4 -4 inlet~;
#X connect 0 0 9 0;
#X connect 1 0 8 0;
#X connect 2 0 0 1;
#X connect 3 0 2 0;
#X connect 3 0 6 0;
#X connect 4 0 3 0;
#X connect 5 0 1 1;
#X connect 6 0 5 0;
#X connect 7 0 4 0;
#X connect 10 0 1 0;
#X connect 10 0 0 0;
