#N canvas 354 437 678 546 10;
#N canvas 0 22 450 300 firegenerator 1;
#X obj 192 28 noise~;
#N canvas 75 317 279 615 crackling 1;
#X obj 65 74 lop~ 1;
#X obj 66 101 env~;
#X obj 69 135 moses 50;
#X obj 121 182 moses 51;
#X msg 125 212 bang;
#X obj 132 238 random 30;
#X obj 133 267 t f f;
#X obj 177 298 * 500;
#X obj 177 335 + 1500;
#X obj 141 369 bp~ 2000 1;
#X msg 62 324 1 \, 0 \$1;
#X obj 67 351 line~;
#X obj 66 383 *~;
#X obj 66 405 *~;
#X obj 66 427 *~;
#X obj 66 449 outlet~;
#X obj 37 37 inlet~;
#X connect 0 0 1 0;
#X connect 1 0 2 0;
#X connect 2 1 3 0;
#X connect 3 0 4 0;
#X connect 4 0 5 0;
#X connect 5 0 6 0;
#X connect 6 0 10 0;
#X connect 6 1 7 0;
#X connect 7 0 8 0;
#X connect 8 0 9 1;
#X connect 9 0 14 1;
#X connect 10 0 11 0;
#X connect 11 0 12 0;
#X connect 11 0 12 1;
#X connect 12 0 13 0;
#X connect 12 0 13 1;
#X connect 13 0 14 0;
#X connect 14 0 15 0;
#X connect 16 0 0 0;
#X connect 16 0 9 0;
#X restore 50 77 pd crackling;
#N canvas 270 48 363 485 hissing 1;
#X obj 89 169 hip~ 1000;
#X obj 184 130 lop~ 1;
#X obj 202 178 *~ 10;
#X obj 199 218 *~;
#X obj 203 263 *~;
#X obj 200 320 *~ 600;
#X obj 180 366 *~;
#X obj 184 413 outlet~;
#X obj 37 37 inlet~;
#X connect 0 0 6 0;
#X connect 1 0 2 0;
#X connect 2 0 3 0;
#X connect 2 0 3 1;
#X connect 3 0 4 0;
#X connect 3 0 4 1;
#X connect 4 0 5 0;
#X connect 5 0 6 1;
#X connect 6 0 7 0;
#X connect 8 0 0 0;
#X connect 8 0 1 0;
#X restore 196 71 pd hissing;
#X obj 217 123 *~ 0.3;
#N canvas 0 22 166 252 lapping 1;
#X obj 32 37 bp~ 30 5;
#X obj 32 59 *~ 100;
#X obj 32 81 hip~ 25;
#X obj 32 103 clip~ -0.9 0.9;
#X obj 32 125 hip~ 25;
#X obj 32 147 *~ 0.6;
#X obj 32 169 outlet~;
#X obj 32 15 inlet~;
#X connect 0 0 1 0;
#X connect 1 0 2 0;
#X connect 2 0 3 0;
#X connect 3 0 4 0;
#X connect 4 0 5 0;
#X connect 5 0 6 0;
#X connect 7 0 0 0;
#X restore 317 75 pd lapping;
#X obj 213 183 outlet~;
#X obj 52 120 *~ 0.1;
#X obj 317 97 *~ 2;
#X connect 0 0 2 0;
#X connect 0 0 4 0;
#X connect 0 0 1 0;
#X connect 1 0 6 0;
#X connect 2 0 3 0;
#X connect 3 0 5 0;
#X connect 4 0 7 0;
#X connect 6 0 5 0;
#X connect 7 0 5 0;
#X restore 112 31 pd firegenerator;
#X obj 130 167 dac~;
#X connect 0 0 1 0;
#X connect 0 0 1 1;
