#N canvas 228 237 450 300 10;
#X obj 367 4 vd~ a 100;
#X obj 367 26 clip~ 0.35 0.6;
#X obj 367 48 -~ 0.35;
#X obj 367 70 *~ 0.25;
#X obj 367 92 cos~;
#X obj 367 114 lop~ 0.5;
#X obj 367 136 *~ 200;
#X obj 367 158 +~ 30;
#X obj 367 180 osc~;
#X obj 367 202 *~;
#X obj 367 224 fcpan 0.91;
#X obj 367 246 throw~ l;
#X connect 0 0 1 0;
#X connect 1 0 2 0;
#X connect 2 0 3 0;
#X connect 3 0 4 0;
#X connect 4 0 5 0;
#X connect 5 0 6 0;
#X connect 6 0 7 0;
#X connect 7 0 8 0;
#X connect 8 0 9 0;
#X connect 9 0 10 0;
#X connect 10 0 11 0;
